<svg width="128" height="128" viewBox="0 0 128 128" fill="none" xmlns="http://www.w3.org/2000/svg">
<path d="M11 18.5623C11.1667 17.7289 11.8 16.0623 13 16.0623C14.2 16.0623 69.1667 7.39561 96.5 3.06228C97.5 2.89561 99.7 2.96228 100.5 4.56228C101.3 6.16228 101.833 12.5623 102 15.5623L89 12.5623L101.5 93.0623L31 94.0623L104 107.062L116 99.5623L117.5 109.562C117.167 110.396 116.1 111.962 114.5 111.562C112.9 111.162 58.1667 120.396 31 125.062C30.1667 125.062 28.4 124.662 28 123.062C27.6 121.462 16.5 52.7289 11 18.5623Z" fill="#052842"/>
<path d="M89 12L114 18.5L126 93L104 107.5L31 94L101.5 93L89 12Z" fill="#FFC410"/>
<path d="M68.6336 36.5L75.6336 79.5L88.1336 78L81.1336 35.5L68.6336 36.5Z" fill="url(#paint0_linear_3_23)"/>
<g filter="url(#filter0_d_3_23)">
<path d="M35.1336 49.5L87.6336 78L76.1336 85L29.1336 52L35.1336 49.5Z" fill="#FFC410"/>
</g>
<g filter="url(#filter1_d_3_23)">
<path d="M40.1336 79.5L81.1336 35.5L67.6336 32L34.1336 78.5L40.1336 79.5Z" fill="#FFC410"/>
</g>
<path d="M110.633 77.7474C110.262 78.002 109.996 78.3276 109.836 78.7241C109.669 79.1218 109.624 79.5609 109.7 80.0416C109.776 80.5222 109.957 80.9391 110.243 81.2921C110.52 81.6396 110.884 81.8925 111.335 82.0506C111.777 82.2033 112.269 82.2368 112.809 82.1513C113.349 82.0658 113.805 81.882 114.179 81.6001C114.552 81.3116 114.82 80.9586 114.984 80.5412C115.139 80.1183 115.179 79.6666 115.103 79.1859C114.997 78.5142 114.708 77.993 114.238 77.622C113.767 77.251 113.184 77.0836 112.488 77.1196L112.922 79.8654L112.192 79.9811L111.605 76.2773L112.296 76.1678C112.871 76.1308 113.419 76.2262 113.941 76.454C114.457 76.6828 114.892 77.0223 115.247 77.4723C115.595 77.9234 115.817 78.4518 115.913 79.0576C116.014 79.6963 115.958 80.3025 115.745 80.8762C115.526 81.4509 115.174 81.9353 114.69 82.3292C114.204 82.7166 113.626 82.9635 112.954 83.0699C112.283 83.1762 111.656 83.1202 111.075 82.9018C110.486 82.6778 110.001 82.3259 109.622 81.8461C109.235 81.3673 108.992 80.8086 108.89 80.1698C108.775 79.439 108.854 78.765 109.127 78.1479C109.4 77.5243 109.845 77.0319 110.462 76.6709L110.633 77.7474ZM114.845 72.126C114.926 72.6331 114.884 73.1122 114.719 73.5636C114.553 74.0083 114.278 74.3826 113.894 74.6864C113.503 74.9846 113.027 75.1781 112.467 75.2667C111.914 75.3543 111.408 75.313 110.949 75.1427C110.483 74.9668 110.105 74.6892 109.815 74.3098C109.519 73.9315 109.33 73.4856 109.249 72.972C109.168 72.4584 109.209 71.9759 109.374 71.5246C109.532 71.0743 109.803 70.6972 110.187 70.3934C110.57 70.0831 111.041 69.8836 111.601 69.7949C112.161 69.7063 112.674 69.7532 113.142 69.9356C113.602 70.1125 113.98 70.3934 114.278 70.7783C114.575 71.1632 114.764 71.6124 114.845 72.126ZM114.055 72.2512C114.004 71.9286 113.881 71.6377 113.684 71.3785C113.488 71.1194 113.225 70.9282 112.895 70.8049C112.564 70.6751 112.181 70.6446 111.746 70.7135C111.312 70.7823 110.957 70.9263 110.681 71.1455C110.405 71.3646 110.217 71.624 110.116 71.9235C110.008 72.224 109.98 72.5356 110.031 72.8583C110.083 73.1875 110.207 73.4784 110.402 73.7309C110.589 73.978 110.848 74.1598 111.177 74.2764C111.506 74.3931 111.887 74.417 112.322 74.3482C112.763 74.2783 113.123 74.1403 113.401 73.9343C113.677 73.7218 113.87 73.4685 113.979 73.1745C114.081 72.8816 114.106 72.5738 114.055 72.2512ZM106.679 68.4418L113.987 67.2842L114.13 68.183L106.821 69.3406L106.679 68.4418ZM111.072 66.5199C110.519 66.6075 110.017 66.5722 109.567 66.414C109.11 66.2569 108.736 66.0024 108.444 65.6504C108.151 65.2918 107.965 64.8689 107.888 64.3816C107.822 63.9602 107.858 63.5528 107.998 63.1593C108.132 62.7669 108.342 62.4502 108.628 62.2092L105.763 62.6629L105.619 61.7542L112.928 60.5966L113.072 61.5053L112.055 61.6664C112.406 61.7931 112.714 62.0142 112.98 62.3298C113.239 62.6465 113.406 63.0386 113.48 63.5061C113.556 63.9867 113.507 64.4434 113.333 64.876C113.157 65.3021 112.873 65.6609 112.481 65.9526C112.088 66.2442 111.619 66.4333 111.072 66.5199ZM110.356 61.9355C109.948 62.0001 109.605 62.1387 109.328 62.3513C109.052 62.5639 108.857 62.8243 108.743 63.1325C108.623 63.4351 108.589 63.7543 108.642 64.0901C108.695 64.4259 108.823 64.7196 109.025 64.9711C109.226 65.2227 109.492 65.4067 109.821 65.5234C110.15 65.64 110.518 65.666 110.927 65.6014C111.341 65.5356 111.69 65.396 111.974 65.1824C112.251 64.9698 112.449 64.7122 112.57 64.4095C112.685 64.108 112.715 63.7893 112.662 63.4534C112.609 63.1176 112.481 62.824 112.279 62.5724C112.07 62.3154 111.801 62.1285 111.472 62.0119C111.136 61.8963 110.764 61.8708 110.356 61.9355ZM108.992 54.6008C109.163 54.5736 109.346 54.5548 109.54 54.5443L110.225 58.8704C110.753 58.753 111.143 58.5057 111.393 58.1285C111.636 57.7458 111.72 57.3174 111.645 56.8433C111.584 56.4548 111.444 56.1462 111.225 55.9176C110.999 55.6834 110.726 55.5376 110.407 55.4802L110.254 54.5123C110.797 54.5748 111.267 54.7972 111.665 55.1797C112.057 55.5631 112.304 56.0775 112.406 56.7228C112.487 57.2364 112.445 57.7156 112.279 58.1603C112.112 58.5985 111.836 58.9662 111.452 59.2634C111.06 59.5616 110.584 59.7551 110.025 59.8437C109.465 59.9324 108.957 59.8981 108.5 59.741C108.043 59.5839 107.671 59.3222 107.383 58.956C107.088 58.5843 106.899 58.135 106.816 57.6082C106.734 57.0946 106.774 56.6226 106.935 56.192C107.097 55.7615 107.358 55.4096 107.72 55.1363C108.074 54.8575 108.498 54.679 108.992 54.6008ZM108.951 55.5589C108.609 55.6131 108.328 55.7353 108.108 55.9253C107.882 56.1164 107.727 56.3535 107.644 56.6367C107.553 56.9144 107.532 57.2112 107.582 57.5273C107.654 57.9816 107.861 58.3472 108.201 58.6239C108.541 58.8941 108.972 59.0116 109.492 58.9763L108.951 55.5589ZM105.789 51.1887C105.684 50.5302 105.801 49.965 106.138 49.4932C106.468 49.0224 107.009 48.7275 107.759 48.6086L110.95 48.1033L111.09 48.9923L108.028 49.4772C107.489 49.5627 107.098 49.7629 106.858 50.0777C106.611 50.3936 106.525 50.7852 106.599 51.2527C106.674 51.7268 106.882 52.082 107.223 52.3182C107.563 52.5478 108.016 52.6178 108.583 52.5281L111.575 52.0541L111.718 52.9529L106.305 53.8102L106.163 52.9114L106.933 52.7893C106.628 52.6554 106.376 52.4489 106.177 52.17C105.976 51.8845 105.847 51.5574 105.789 51.1887ZM104.004 44.0778L106.306 43.7133L105.908 41.2045L106.649 41.0872L107.046 43.5959L109.417 43.2205L108.973 40.4155L109.713 40.2981L110.3 44.002L103.406 45.0939L102.819 41.39L103.56 41.2727L104.004 44.0778ZM104.822 38.7574C104.488 38.6484 104.212 38.4625 103.995 38.1999C103.777 37.9307 103.634 37.5854 103.567 37.164L104.496 37.017L104.533 37.254C104.693 38.2615 105.319 38.6786 106.412 38.5055L109.356 38.0393L109.498 38.9381L104.085 39.7954L103.943 38.8966L104.822 38.7574ZM106.241 36.0212C105.688 36.1088 105.187 36.0735 104.736 35.9153C104.28 35.7582 103.905 35.5036 103.613 35.1516C103.32 34.7931 103.135 34.3734 103.059 33.8928C102.984 33.4187 103.021 32.991 103.17 32.6097C103.319 32.2283 103.534 31.9276 103.817 31.7074L102.829 31.8638L102.685 30.9551L108.098 30.0979L108.242 31.0065L107.234 31.1661C107.578 31.2938 107.884 31.5188 108.151 31.841C108.41 32.1576 108.577 32.5497 108.651 33.0172C108.727 33.4979 108.678 33.9512 108.502 34.3773C108.327 34.8033 108.043 35.1622 107.65 35.4538C107.258 35.7455 106.788 35.9346 106.241 36.0212ZM105.525 31.4367C105.117 31.5014 104.775 31.64 104.498 31.8526C104.221 32.0652 104.026 32.3256 103.913 32.6337C103.792 32.9364 103.758 33.2556 103.811 33.5914C103.865 33.9272 103.992 34.2209 104.194 34.4724C104.396 34.7239 104.661 34.908 104.99 35.0246C105.319 35.1413 105.688 35.1673 106.096 35.1026C106.511 35.0369 106.86 34.8972 107.143 34.6836C107.42 34.471 107.619 34.2134 107.74 33.9108C107.854 33.6092 107.885 33.2905 107.831 32.9547C107.778 32.6189 107.651 32.3252 107.449 32.0737C107.239 31.8166 106.97 31.6298 106.641 31.5131C106.306 31.3975 105.934 31.3721 105.525 31.4367Z" fill="black"/>
<g filter="url(#filter2_d_3_23)">
<path d="M114 18.5L89 12L104 107.5L126 93L114 18.5Z" fill="#FFC410"/>
</g>
<path d="M115.063 79.5602C115.207 80.4689 115.012 81.2187 114.478 81.8095C113.937 82.4014 113.097 82.7875 111.958 82.968C110.819 83.1484 109.9 83.0341 109.201 82.6251C108.495 82.2172 108.069 81.5523 107.923 80.6304C107.869 80.288 107.863 79.9515 107.905 79.6209C107.946 79.2836 108.033 79.0032 108.166 78.7796C108.3 78.556 108.472 78.4275 108.682 78.3941C108.86 78.3659 109.024 78.421 109.174 78.5592C109.324 78.6974 109.418 78.9053 109.455 79.1829C109.028 79.2978 108.722 79.4746 108.537 79.7131C108.351 79.945 108.284 80.2223 108.335 80.545C108.427 81.131 108.76 81.5239 109.331 81.7236C109.895 81.9178 110.704 81.9314 111.758 81.7645C112.818 81.5966 113.586 81.3332 114.062 80.9743C114.539 80.6153 114.731 80.1461 114.639 79.5667C114.562 79.0794 114.318 78.7739 113.907 78.65C113.496 78.5261 113.04 78.5038 112.539 78.583C112.19 78.6383 111.909 78.7336 111.694 78.8689C111.472 79.0052 111.338 79.1986 111.29 79.4492C111.171 79.4275 111.073 79.3587 110.994 79.243C110.915 79.1273 110.863 78.9904 110.838 78.8324C110.785 78.5031 110.862 78.221 111.068 77.9859C111.273 77.7442 111.619 77.5848 112.106 77.5076C112.619 77.4263 113.087 77.4569 113.508 77.5995C113.927 77.7355 114.272 77.9745 114.542 78.3164C114.812 78.6518 114.985 79.0664 115.063 79.5602ZM114.161 73.865C114.279 74.609 114.137 75.2255 113.735 75.7144C113.333 76.1967 112.713 76.504 111.877 76.6365C111.034 76.77 110.346 76.6663 109.813 76.3256C109.28 75.9848 108.955 75.4456 108.838 74.7082C108.72 73.9641 108.862 73.3476 109.264 72.8588C109.665 72.3699 110.288 72.0587 111.131 71.9252C111.967 71.7928 112.652 71.8969 113.185 72.2377C113.718 72.5785 114.044 73.1209 114.161 73.865ZM113.756 73.9291C113.694 73.5341 113.456 73.268 113.043 73.1309C112.629 72.9873 112.053 72.9739 111.315 73.0907C110.571 73.2085 110.024 73.3998 109.675 73.6644C109.324 73.9224 109.18 74.249 109.243 74.644C109.305 75.0391 109.544 75.3085 109.958 75.4521C110.371 75.5891 110.95 75.5987 111.694 75.4809C112.431 75.3641 112.975 75.1767 113.326 74.9187C113.675 74.654 113.819 74.3242 113.756 73.9291ZM113.413 69.3294C113.468 69.6784 113.402 69.9656 113.215 70.1909C113.02 70.4108 112.725 70.552 112.33 70.6145L106.829 71.4859C106.651 71.514 106.504 71.48 106.387 71.3837C106.263 71.2818 106.187 71.1387 106.158 70.9544C106.119 70.7107 106.169 70.4936 106.307 70.3029C106.555 70.3312 106.818 70.3333 107.098 70.3093C107.371 70.2863 107.758 70.2351 108.258 70.1559L112.071 69.552C112.42 69.4968 112.576 69.3506 112.538 69.1136C112.528 69.0477 112.505 68.9872 112.469 68.9321C112.432 68.8705 112.385 68.8306 112.328 68.8126C112.42 68.7104 112.535 68.6483 112.674 68.6264C112.851 68.5982 113.012 68.6538 113.156 68.793C113.293 68.9333 113.378 69.1121 113.413 69.3294ZM111.444 63.0984C111.55 63.0007 111.669 62.9413 111.8 62.9205C111.965 62.8944 112.111 62.9454 112.24 63.0736C112.367 63.1952 112.448 63.3647 112.482 63.5819C112.574 64.1614 112.199 64.5447 111.358 64.7319C112.291 64.9082 112.821 65.4046 112.951 66.2211C113.048 66.8335 112.89 67.3106 112.479 67.6526C112.061 67.9955 111.493 68.2239 110.775 68.3375C109.86 68.4825 109.123 68.4135 108.565 68.1306C108.008 67.8478 107.676 67.3705 107.569 66.6989C107.519 66.3828 107.536 66.1067 107.62 65.8707C107.704 65.6346 107.847 65.45 108.049 65.3168L107.199 65.4513C106.534 65.5567 106.004 65.7047 105.609 65.8956C105.416 65.7373 105.3 65.5429 105.264 65.3124C105.235 65.1281 105.263 64.9683 105.35 64.8331C105.437 64.6978 105.565 64.6167 105.737 64.5896L111.151 63.7422C111.493 63.688 111.647 63.5522 111.613 63.3349C111.593 63.2098 111.537 63.131 111.444 63.0984ZM112.3 66.0104C112.234 65.5955 111.926 65.3136 111.376 65.1645C110.826 65.0153 110.189 64.9981 109.464 65.1129C109.01 65.1848 108.656 65.3151 108.402 65.5038C108.142 65.6935 108.043 65.9826 108.104 66.3711C108.229 67.1547 109.048 67.4265 110.562 67.1866C111.168 67.0907 111.622 66.9546 111.925 66.7784C112.228 66.6022 112.353 66.3462 112.3 66.0104ZM110.17 58.3178C110.2 58.2051 110.273 58.1394 110.392 58.1207C110.471 58.1081 110.57 58.1161 110.689 58.1444C111.019 58.2205 111.291 58.4068 111.507 58.7034C111.722 58.9934 111.864 59.3623 111.935 59.81C112.054 60.5607 111.918 61.1898 111.525 61.6974C111.132 62.1984 110.511 62.5161 109.662 62.6507C108.825 62.7831 108.14 62.6757 107.606 62.3283C107.065 61.982 106.733 61.417 106.609 60.6335C106.518 60.0606 106.573 59.576 106.773 59.1798C106.967 58.7846 107.298 58.55 107.765 58.4759C108.253 58.3988 108.659 58.5369 108.985 58.8902C109.303 59.238 109.516 59.7478 109.622 60.4194C109.683 60.8013 109.72 61.143 109.734 61.4445C110.339 61.3014 110.752 61.0774 110.974 60.7723C111.196 60.4672 111.27 60.0874 111.199 59.6331C111.142 59.2775 111.022 58.9861 110.837 58.7588C110.652 58.525 110.429 58.378 110.17 58.3178ZM107.02 60.6088C107.081 60.9973 107.314 61.2743 107.718 61.4398C108.115 61.5997 108.649 61.6265 109.321 61.5201C109.313 61.3458 109.295 61.1697 109.267 60.9919C109.196 60.5442 109.05 60.1928 108.827 59.9378C108.604 59.6829 108.256 59.5929 107.782 59.668C107.459 59.7191 107.244 59.8308 107.136 60.0031C107.022 60.1765 106.983 60.3784 107.02 60.6088ZM109.345 52.6617C109.883 52.563 110.265 52.4417 110.492 52.2977C110.685 52.4494 110.8 52.6438 110.838 52.8809C110.867 53.0652 110.842 53.2245 110.762 53.3587C110.675 53.4939 110.543 53.5755 110.365 53.6037L107.787 54.012C107.242 54.1051 106.85 54.2346 106.614 54.4004C106.369 54.5606 106.272 54.8021 106.323 55.1247C106.358 55.342 106.472 55.5298 106.666 55.6881C106.858 55.8398 107.135 55.9445 107.495 56.0022C107.848 56.061 108.279 56.0502 108.786 55.9699C109.563 55.8468 110.075 55.7556 110.322 55.6962C110.569 55.6368 110.794 55.5471 110.998 55.4271C111.068 55.4836 111.135 55.5641 111.198 55.6688C111.268 55.7658 111.312 55.8768 111.332 56.002C111.362 56.1929 111.331 56.3565 111.238 56.4928C111.145 56.629 111.003 56.7123 110.812 56.7425L107.444 57.2759C107.26 57.3117 107.132 57.3556 107.059 57.4077C106.987 57.4597 106.958 57.5318 106.972 57.624C106.992 57.7491 107.052 57.8274 107.151 57.8589C107.04 57.9643 106.921 58.0269 106.796 58.0467C106.625 58.0738 106.477 58.0332 106.352 57.9247C106.22 57.8174 106.136 57.6517 106.101 57.4279C106.056 57.1447 106.12 56.9118 106.294 56.7291C106.46 56.5408 106.734 56.4164 107.116 56.3559L107.165 56.3481C106.756 56.2779 106.426 56.1175 106.178 55.8666C105.921 55.6103 105.76 55.278 105.696 54.8698C105.61 54.3298 105.715 53.9049 106.01 53.5949C106.304 53.2783 106.787 53.0668 107.459 52.9605L109.345 52.6617ZM108.469 45.0867C108.498 45.0145 108.56 44.9542 108.653 44.9056C108.746 44.8505 108.851 44.8135 108.97 44.7948C109.095 44.7749 109.204 44.7813 109.297 44.8138C109.39 44.8464 109.443 44.9054 109.457 44.991L109.954 48.1319C109.983 48.3163 109.958 48.4755 109.878 48.6097C109.79 48.7383 109.658 48.8167 109.48 48.8449L104.612 49.626C104.125 49.7031 103.751 49.8163 103.491 49.9655C103.36 49.8581 103.267 49.7412 103.213 49.6147C103.152 49.4827 103.101 49.2915 103.061 49.0413L102.598 46.1178C102.58 45.9992 102.669 45.9243 102.867 45.8931C102.998 45.8722 103.138 45.8804 103.286 45.9178C103.426 45.9496 103.522 46.0052 103.575 46.0846C103.451 46.9615 103.446 47.8229 103.559 48.6689L105.999 48.2825L105.642 46.0305C105.717 45.9917 105.81 45.9634 105.922 45.9457C106.001 45.9331 106.109 45.9296 106.245 45.9351L106.6 48.1772L109.336 47.7438C109.261 47.3169 109.14 46.8501 108.972 46.3435C108.798 45.8379 108.63 45.4189 108.469 45.0867ZM103.653 41.9728C103.596 41.6106 103.645 41.3025 103.8 41.0484C103.956 40.7943 104.201 40.6406 104.537 40.5874C104.787 40.5478 105 40.5884 105.174 40.7093C105.348 40.8302 105.453 40.9992 105.487 41.2165C105.52 41.4207 105.49 41.5771 105.4 41.686C105.27 41.6324 105.156 41.5997 105.06 41.5879C104.957 41.5772 104.843 41.5818 104.718 41.6016C104.343 41.661 104.181 41.8554 104.233 42.1846C104.275 42.448 104.503 42.6312 104.918 42.7343C105.325 42.8319 105.913 42.8196 106.684 42.6976L107.059 42.6382C107.645 42.5453 108.048 42.4713 108.269 42.4161C108.483 42.3619 108.683 42.2797 108.868 42.1694C108.938 42.2259 109.004 42.3031 109.067 42.4012C109.129 42.4992 109.175 42.6169 109.204 42.7541C109.232 42.9319 109.2 43.0922 109.108 43.235C109.014 43.3713 108.872 43.4545 108.681 43.4848L105.343 44.0135C105.165 44.0417 105.04 44.0851 104.969 44.1437C104.889 44.1967 104.857 44.2694 104.872 44.3615C104.891 44.4867 104.951 44.565 105.051 44.5964C104.939 44.7019 104.821 44.7645 104.696 44.7843C104.524 44.8114 104.376 44.7708 104.251 44.6623C104.119 44.555 104.036 44.3893 104 44.1655C103.957 43.8955 104.016 43.6669 104.175 43.4797C104.334 43.2924 104.595 43.1668 104.956 43.1029C104.188 42.9882 103.754 42.6115 103.653 41.9728ZM106.902 34.5528C106.995 34.4571 107.111 34.3983 107.249 34.3764C107.42 34.3493 107.577 34.4021 107.719 34.5348C107.862 34.6674 107.952 34.8523 107.99 35.0893C108.041 35.412 107.971 35.6728 107.779 35.8718C107.582 36.0719 107.236 36.2144 106.743 36.2992C107.203 36.4289 107.588 36.6446 107.899 36.9464C108.21 37.2481 108.4 37.6195 108.47 38.0607C108.531 38.4426 108.478 38.7683 108.311 39.0376C108.137 39.3015 107.872 39.4615 107.516 39.5179C107.102 39.5836 106.734 39.4798 106.414 39.2065C106.094 38.9332 105.826 38.5605 105.609 38.0886C105.393 37.6166 105.251 37.1228 105.182 36.6072L104.935 36.6463C104.363 36.737 103.954 36.8828 103.709 37.0835C103.464 37.2843 103.371 37.5691 103.429 37.9378C103.469 38.188 103.56 38.3828 103.704 38.522C103.846 38.6547 104.053 38.6997 104.322 38.6569C104.474 38.6329 104.611 38.5809 104.733 38.5008C104.855 38.4206 104.939 38.3062 104.982 38.1575C105.065 38.2119 105.135 38.2919 105.193 38.3976C105.242 38.4977 105.276 38.6071 105.295 38.7256C105.337 38.989 105.285 39.2165 105.14 39.4083C104.987 39.5944 104.786 39.7074 104.536 39.747C104.147 39.8085 103.823 39.6777 103.562 39.3544C103.295 39.0322 103.112 38.5584 103.013 37.9328C102.9 37.2217 102.989 36.6744 103.28 36.2909C103.562 35.9019 104.075 35.6485 104.82 35.5307L106.637 35.2428C106.986 35.1875 107.143 35.048 107.107 34.8241C107.099 34.7714 107.077 34.7208 107.043 34.6723C107.007 34.6172 106.96 34.5774 106.902 34.5528ZM107.671 37.6811C107.637 37.4638 107.516 37.2567 107.309 37.06C107.095 36.8577 106.831 36.7038 106.517 36.5982C106.204 36.4926 105.882 36.4659 105.553 36.5181C105.576 36.7506 105.627 36.9823 105.704 37.2131C105.774 37.4449 105.862 37.6402 105.969 37.7988C106.104 38.0137 106.267 38.1734 106.46 38.2779C106.644 38.377 106.848 38.4088 107.072 38.3733C107.27 38.342 107.427 38.2699 107.544 38.1568C107.66 38.0372 107.702 37.8786 107.671 37.6811Z" fill="black"/>
<defs>
<filter id="filter0_d_3_23" x="28.1336" y="46.5" width="62.5" height="39.5" filterUnits="userSpaceOnUse" color-interpolation-filters="sRGB">
<feFlood flood-opacity="0" result="BackgroundImageFix"/>
<feColorMatrix in="SourceAlpha" type="matrix" values="0 0 0 0 0 0 0 0 0 0 0 0 0 0 0 0 0 0 127 0" result="hardAlpha"/>
<feOffset dx="1" dy="-1"/>
<feGaussianBlur stdDeviation="1"/>
<feComposite in2="hardAlpha" operator="out"/>
<feColorMatrix type="matrix" values="0 0 0 0 0 0 0 0 0 0 0 0 0 0 0 0 0 0 0.08 0"/>
<feBlend mode="normal" in2="BackgroundImageFix" result="effect1_dropShadow_3_23"/>
<feBlend mode="normal" in="SourceGraphic" in2="effect1_dropShadow_3_23" result="shape"/>
</filter>
<filter id="filter1_d_3_23" x="33.1336" y="31" width="51" height="51.5" filterUnits="userSpaceOnUse" color-interpolation-filters="sRGB">
<feFlood flood-opacity="0" result="BackgroundImageFix"/>
<feColorMatrix in="SourceAlpha" type="matrix" values="0 0 0 0 0 0 0 0 0 0 0 0 0 0 0 0 0 0 127 0" result="hardAlpha"/>
<feOffset dx="1" dy="1"/>
<feGaussianBlur stdDeviation="1"/>
<feComposite in2="hardAlpha" operator="out"/>
<feColorMatrix type="matrix" values="0 0 0 0 0 0 0 0 0 0 0 0 0 0 0 0 0 0 0.1 0"/>
<feBlend mode="normal" in2="BackgroundImageFix" result="effect1_dropShadow_3_23"/>
<feBlend mode="normal" in="SourceGraphic" in2="effect1_dropShadow_3_23" result="shape"/>
</filter>
<filter id="filter2_d_3_23" x="83" y="12" width="45" height="103.5" filterUnits="userSpaceOnUse" color-interpolation-filters="sRGB">
<feFlood flood-opacity="0" result="BackgroundImageFix"/>
<feColorMatrix in="SourceAlpha" type="matrix" values="0 0 0 0 0 0 0 0 0 0 0 0 0 0 0 0 0 0 127 0" result="hardAlpha"/>
<feOffset dx="-2" dy="4"/>
<feGaussianBlur stdDeviation="2"/>
<feComposite in2="hardAlpha" operator="out"/>
<feColorMatrix type="matrix" values="0 0 0 0 0 0 0 0 0 0 0 0 0 0 0 0 0 0 0.25 0"/>
<feBlend mode="normal" in2="BackgroundImageFix" result="effect1_dropShadow_3_23"/>
<feBlend mode="normal" in="SourceGraphic" in2="effect1_dropShadow_3_23" result="shape"/>
</filter>
<linearGradient id="paint0_linear_3_23" x1="75" y1="35" x2="82.5" y2="84.5" gradientUnits="userSpaceOnUse">
<stop stop-color="#FFC410" stop-opacity="0.541667"/>
<stop offset="0.494792" stop-color="#FFC410"/>
<stop offset="1" stop-color="#FFC410" stop-opacity="0.5"/>
</linearGradient>
</defs>
</svg>
